<svg width="40" height="40" viewBox="0 0 40 40" fill="none" xmlns="http://www.w3.org/2000/svg" xmlns:xlink="http://www.w3.org/1999/xlink">
<path d="M6,2C4.895,2 4,2.895 4,4C4,5.105 4.895,6 6,6L6,2ZM14,4L15.857,3.257C15.553,2.498 14.818,2 14,2L14,4ZM18,14L19.029,15.715C19.871,15.21 20.222,14.169 19.857,13.257L18,14ZM13,17L11.971,15.285C11.078,15.821 10.746,16.951 11.206,17.885L13,17ZM23,27L22.115,28.794C23.049,29.254 24.179,28.922 24.715,28.029L23,27ZM26,22L26.743,20.143C25.831,19.778 24.79,20.129 24.285,20.971L26,22ZM36,26L38,26C38,25.182 37.502,24.447 36.743,24.143L36,26ZM32,38L31.879,39.996C31.919,39.999 31.96,40 32,40L32,38ZM2,8L0,8C0,8.04 0.001,8.081 0.004,8.121L2,8ZM6,6C7.105,6 8,5.105 8,4C8,2.895 7.105,2 6,2L6,6ZM6,6L14,6L14,2L6,2L6,6ZM12.143,4.743L16.143,14.743L19.857,13.257L15.857,3.257L12.143,4.743ZM16.971,12.285L11.971,15.285L14.029,18.715L19.029,15.715L16.971,12.285ZM11.206,17.885C13.543,22.623 17.377,26.457 22.115,28.794L23.885,25.206C19.936,23.259 16.741,20.064 14.794,16.115L11.206,17.885ZM24.715,28.029L27.715,23.029L24.285,20.971L21.285,25.971L24.715,28.029ZM25.257,23.857L35.257,27.857L36.743,24.143L26.743,20.143L25.257,23.857ZM34,26L34,34L38,34L38,26L34,26ZM34,34C34,34.53 33.789,35.039 33.414,35.414L36.243,38.243C37.368,37.117 38,35.591 38,34L34,34ZM33.414,35.414C33.039,35.789 32.53,36 32,36L32,40C33.591,40 35.117,39.368 36.243,38.243L33.414,35.414ZM32.121,36.004C24.807,35.559 17.909,32.453 12.728,27.272L9.899,30.101C15.772,35.973 23.59,39.493 31.879,39.996L32.121,36.004ZM12.728,27.272C7.547,22.091 4.441,15.193 3.996,7.879L0.004,8.121C0.507,16.41 4.027,24.228 9.899,30.101L12.728,27.272ZM4,8C4,7.47 4.211,6.961 4.586,6.586L1.757,3.757C0.632,4.883 0,6.409 0,8L4,8ZM4.586,6.586C4.961,6.211 5.47,6 6,6L6,2C4.409,2 2.883,2.632 1.757,3.757L4.586,6.586Z" fill="#4B164C"/>
<path d="M26,8C24.895,8 24,8.895 24,10C24,11.105 24.895,12 26,12L26,8ZM28,14C28,15.105 28.895,16 30,16C31.105,16 32,15.105 32,14L28,14ZM26,12C26.53,12 27.039,12.211 27.414,12.586L30.243,9.757C29.117,8.632 27.591,8 26,8L26,12ZM27.414,12.586C27.789,12.961 28,13.47 28,14L32,14C32,12.409 31.368,10.883 30.243,9.757L27.414,12.586Z" fill="#4B164C"/>
<path d="M26,0C24.895,0 24,0.895 24,2C24,3.105 24.895,4 26,4L26,0ZM36,14C36,15.105 36.895,16 38,16C39.105,16 40,15.105 40,14L36,14ZM26,4C28.652,4 31.196,5.054 33.071,6.929L35.899,4.1C33.274,1.475 29.713,0 26,0L26,4ZM33.071,6.929C34.946,8.804 36,11.348 36,14L40,14C40,10.287 38.525,6.726 35.899,4.1L33.071,6.929Z" fill="#4B164C"/>
</svg>
