<svg width="34" height="40" viewBox="0 0 34 40" fill="none" xmlns="http://www.w3.org/2000/svg" xmlns:xlink="http://www.w3.org/1999/xlink">
<path d="M4.12,4.273C7.271,1.123 11.544,-0.647 16,-0.647C20.456,-0.647 24.729,1.123 27.88,4.273C31.031,7.424 32.801,11.698 32.801,16.153C32.801,20.609 31.031,24.883 27.88,28.033L16,39.913L4.12,28.033C2.56,26.473 1.322,24.621 0.478,22.583C-0.367,20.545 -0.801,18.36 -0.801,16.153C-0.801,13.947 -0.367,11.762 0.478,9.724C1.322,7.686 2.56,5.833 4.12,4.273L4.12,4.273ZM16,20.953C17.273,20.953 18.494,20.448 19.394,19.548C20.294,18.647 20.8,17.426 20.8,16.153C20.8,14.88 20.294,13.659 19.394,12.759C18.494,11.859 17.273,11.353 16,11.353C14.727,11.353 13.506,11.859 12.606,12.759C11.706,13.659 11.2,14.88 11.2,16.153C11.2,17.426 11.706,18.647 12.606,19.548C13.506,20.448 14.727,20.953 16,20.953Z" clip-rule="evenodd" fill-rule="evenodd" fill="#DD88CF"/>
</svg>
