<svg width="24" height="25" viewBox="0 0 24 25" fill="none" xmlns="http://www.w3.org/2000/svg">
<path d="M23 11.6656C23.0042 13.2788 22.6273 14.8702 21.9 16.3101C21.0376 18.0355 19.7119 19.4868 18.0713 20.5014C16.4307 21.516 14.5401 22.0538 12.6111 22.0545C10.9979 22.0587 9.40657 21.6818 7.96666 20.9545L1 23.2767L3.32222 16.3101C2.59491 14.8702 2.21801 13.2788 2.22222 11.6656C2.22297 9.73668 2.76075 7.84602 3.77532 6.20543C4.78989 4.56485 6.24119 3.23913 7.96666 2.37677C9.40657 1.64946 10.9979 1.27256 12.6111 1.27677H13.2222C15.7697 1.41731 18.1759 2.49259 19.98 4.2967C21.7841 6.10082 22.8594 8.507 23 11.0545V11.6656Z" fill="#DD88CF" stroke="#DD88CF" stroke-width="2" stroke-linecap="round" stroke-linejoin="round"/>
</svg>
